{
  "asset": {
    "version": "2.0",
    "generator": "THREE.GLTFExporter r180"
  },
  "scenes": [
    {
      "name": "Scene",
      "nodes": [
        0
      ]
    }
  ],
  "scene": 0,
  "nodes": [
    {
      "name": "ISLAND.glb",
      "children": [
        1,
        2,
        3,
        4,
        5,
        6
      ]
    },
    {
      "matrix": [
        24.14307403564453,
        0,
        0,
        0,
        0,
        3.53415584564209,
        0,
        0,
        0,
        0,
        24.14307403564453,
        0,
        1.4358643293380737,
        -3.7723464965820312,
        -0.3113745450973511,
        1
      ],
      "name": "ISLAND",
      "extras": {
        "name": "ISLAND"
      },
      "mesh": 0
    },
    {
      "matrix": [
        25.240758895874023,
        0,
        0,
        0,
        0,
        3.6948390007019043,
        0,
        0,
        0,
        0,
        25.240758895874023,
        0,
        1.4358643293380737,
        -3.1411142349243164,
        -0.3113745450973511,
        1
      ],
      "name": "GRASS",
      "extras": {
        "name": "GRASS"
      },
      "mesh": 1
    },
    {
      "matrix": [
        1.600815773010254,
        0,
        0,
        0,
        0,
        2.2794346809387207,
        0,
        0,
        0,
        0,
        1.600815773010254,
        0,
        0.12128421664237976,
        -20.35747528076172,
        -0.3113745450973511,
        1
      ],
      "name": "LANTERN",
      "extras": {
        "name": "LANTERN"
      },
      "mesh": 2
    },
    {
      "matrix": [
        4.373763084411621,
        0,
        0,
        0,
        0,
        -5.876537424907781e-7,
        -4.3737631952282054,
        0,
        0,
        4.3737631952282054,
        -5.876537424907781e-7,
        0,
        0.19668641686439514,
        -19.867870330810547,
        -0.3113745450973511,
        1
      ],
      "name": "LIGHThole",
      "extras": {
        "name": "LIGHT.hole"
      },
      "extensions": {
        "KHR_lights_punctual": {
          "light": 0
        }
      }
    },
    {
      "matrix": [
        4.373763084411621,
        0,
        0,
        0,
        0,
        -5.876537424907781e-7,
        -4.3737631952282054,
        0,
        0,
        4.3737631952282054,
        -5.876537424907781e-7,
        0,
        -23.136051177978516,
        -34.33538055419922,
        -19.707542419433594,
        1
      ],
      "name": "LIGHTblue",
      "extras": {
        "name": "LIGHT.blue"
      },
      "extensions": {
        "KHR_lights_punctual": {
          "light": 1
        }
      }
    },
    {
      "matrix": [
        4.373763084411621,
        0,
        0,
        0,
        0,
        -5.876537424907781e-7,
        -4.3737631952282054,
        0,
        0,
        4.3737631952282054,
        -5.876537424907781e-7,
        0,
        17.392765045166016,
        -34.33538055419922,
        21.50680160522461,
        1
      ],
      "name": "LIGHTgreen",
      "extras": {
        "name": "LIGHT.green"
      },
      "extensions": {
        "KHR_lights_punctual": {
          "light": 2
        }
      }
    }
  ],
  "bufferViews": [
    {
      "buffer": 0,
      "byteOffset": 0,
      "byteLength": 43284,
      "target": 34962,
      "byteStride": 12
    },
    {
      "buffer": 0,
      "byteOffset": 43284,
      "byteLength": 43284,
      "target": 34962,
      "byteStride": 12
    },
    {
      "buffer": 0,
      "byteOffset": 86568,
      "byteLength": 28856,
      "target": 34962,
      "byteStride": 8
    },
    {
      "buffer": 0,
      "byteOffset": 115424,
      "byteLength": 12792,
      "target": 34963
    },
    {
      "buffer": 0,
      "byteOffset": 128216,
      "byteLength": 142356,
      "target": 34962,
      "byteStride": 12
    },
    {
      "buffer": 0,
      "byteOffset": 270572,
      "byteLength": 142356,
      "target": 34962,
      "byteStride": 12
    },
    {
      "buffer": 0,
      "byteOffset": 412928,
      "byteLength": 94904,
      "target": 34962,
      "byteStride": 8
    },
    {
      "buffer": 0,
      "byteOffset": 507832,
      "byteLength": 42552,
      "target": 34963
    },
    {
      "buffer": 0,
      "byteOffset": 550384,
      "byteLength": 33528,
      "target": 34962,
      "byteStride": 12
    },
    {
      "buffer": 0,
      "byteOffset": 583912,
      "byteLength": 33528,
      "target": 34962,
      "byteStride": 12
    },
    {
      "buffer": 0,
      "byteOffset": 617440,
      "byteLength": 22352,
      "target": 34962,
      "byteStride": 8
    },
    {
      "buffer": 0,
      "byteOffset": 639792,
      "byteLength": 13920,
      "target": 34963
    }
  ],
  "buffers": [
    {
      "byteLength": 653712,
      "uri": "data:application/octet-stream;base64,"
    }
  ],
  "accessors": [
    {
      "bufferView": 0,
      "componentType": 5126,
      "count": 3607,
      "max": [
        1.2072993516921997,
        1.2690825462341309,
        1.3126893043518066
      ],
      "min": [
        -1.1804033517837524,
        -12.357634544372559,
        -1.3037803173065186
      ],
      "type": "VEC3"
    },
    {
      "bufferView": 1,
      "componentType": 5126,
      "count": 3607,
      "max": [
        0.9993966817855835,
        1,
        0.9998760223388672
      ],
      "min": [
        -0.9998983144760132,
        -0.5738940238952637,
        -0.998994767665863
      ],
      "type": "VEC3"
    },
    {
      "bufferView": 2,
      "componentType": 5126,
      "count": 3607,
      "max": [
        0.8750001788139343,
        1
      ],
      "min": [
        0.1249999925494194,
        -1.1920928955078125e-7
      ],
      "type": "VEC2"
    },
    {
      "bufferView": 3,
      "componentType": 5123,
      "count": 6396,
      "max": [
        3606
      ],
      "min": [
        0
      ],
      "type": "SCALAR"
    },
    {
      "bufferView": 4,
      "componentType": 5126,
      "count": 11863,
      "max": [
        1.2072994709014893,
        1.3571183681488037,
        1.3126894235610962
      ],
      "min": [
        -1.180403470993042,
        -2.944025993347168,
        -1.303780436515808
      ],
      "type": "VEC3"
    },
    {
      "bufferView": 5,
      "componentType": 5126,
      "count": 11863,
      "max": [
        1,
        1,
        1
      ],
      "min": [
        -1,
        -1,
        -1
      ],
      "type": "VEC3"
    },
    {
      "bufferView": 6,
      "componentType": 5126,
      "count": 11863,
      "max": [
        0.8750002980232239,
        1
      ],
      "min": [
        0.5,
        -2.384185791015625e-7
      ],
      "type": "VEC2"
    },
    {
      "bufferView": 7,
      "componentType": 5123,
      "count": 21276,
      "max": [
        11862
      ],
      "min": [
        0
      ],
      "type": "SCALAR"
    },
    {
      "bufferView": 8,
      "componentType": 5126,
      "count": 2794,
      "max": [
        1,
        3.7896084785461426,
        1
      ],
      "min": [
        -1,
        -1,
        -1
      ],
      "type": "VEC3"
    },
    {
      "bufferView": 9,
      "componentType": 5126,
      "count": 2794,
      "max": [
        1,
        1,
        1
      ],
      "min": [
        -1,
        -1,
        -1
      ],
      "type": "VEC3"
    },
    {
      "bufferView": 10,
      "componentType": 5126,
      "count": 2794,
      "max": [
        0.8750000596046448,
        1
      ],
      "min": [
        0.125,
        0
      ],
      "type": "VEC2"
    },
    {
      "bufferView": 11,
      "componentType": 5123,
      "count": 6960,
      "max": [
        2793
      ],
      "min": [
        0
      ],
      "type": "SCALAR"
    }
  ],
  "materials": [
    {
      "pbrMetallicRoughness": {
        "baseColorFactor": [
          0.12762506306171417,
          0.10339764505624771,
          0.07816056907176971,
          1
        ],
        "metallicFactor": 0,
        "roughnessFactor": 0.5
      },
      "doubleSided": true,
      "name": "Material.003"
    },
    {
      "pbrMetallicRoughness": {
        "baseColorFactor": [
          0.0002994192182086408,
          0.16504821181297302,
          0,
          1
        ],
        "metallicFactor": 0,
        "roughnessFactor": 0.5
      },
      "doubleSided": true,
      "name": "Material.001"
    },
    {
      "pbrMetallicRoughness": {
        "baseColorFactor": [
          0.014653682708740234,
          0.014653682708740234,
          0.014653682708740234,
          1
        ],
        "metallicFactor": 0,
        "roughnessFactor": 0.5
      },
      "doubleSided": true,
      "name": "Material"
    }
  ],
  "meshes": [
    {
      "primitives": [
        {
          "mode": 4,
          "attributes": {
            "POSITION": 0,
            "NORMAL": 1,
            "TEXCOORD_0": 2
          },
          "indices": 3,
          "material": 0
        }
      ]
    },
    {
      "primitives": [
        {
          "mode": 4,
          "attributes": {
            "POSITION": 4,
            "NORMAL": 5,
            "TEXCOORD_0": 6
          },
          "indices": 7,
          "material": 1
        }
      ]
    },
    {
      "primitives": [
        {
          "mode": 4,
          "attributes": {
            "POSITION": 8,
            "NORMAL": 9,
            "TEXCOORD_0": 10
          },
          "indices": 11,
          "material": 2
        }
      ]
    }
  ],
  "extensions": {
    "KHR_lights_punctual": {
      "lights": [
        {
          "name": "LIGHThole",
          "color": [
            1,
            0.6581271886825562,
            0.18033930659294128
          ],
          "intensity": 1000,
          "type": "point"
        },
        {
          "name": "LIGHTblue",
          "color": [
            0.3124479055404663,
            0.38424885272979736,
            1
          ],
          "intensity": 1000,
          "type": "point"
        },
        {
          "name": "LIGHTgreen",
          "color": [
            0.6531198620796204,
            1,
            0.5291132926940918
          ],
          "intensity": 1000,
          "type": "point"
        }
      ]
    }
  },
  "extensionsUsed": [
    "KHR_lights_punctual"
  ]
}