{
  "asset": {
    "version": "2.0",
    "generator": "THREE.GLTFExporter r180"
  },
  "scenes": [
    {
      "name": "Scene",
      "nodes": [
        0,
        2
      ]
    }
  ],
  "scene": 0,
  "nodes": [
    {
      "name": "specs+lys.glb",
      "children": [
        1
      ]
    },
    {
      "matrix": [
        2.5267248153686523,
        0,
        0,
        0,
        0,
        -3.3948785684533283e-7,
        2.5267251548565093,
        0,
        0,
        -2.5267251548565093,
        -3.3948785684533283e-7,
        0,
        -1.1683554649353027,
        0.013132505118846893,
        0.0017481446266174316,
        1
      ],
      "name": "Curve011",
      "extras": {
        "name": "Curve.011"
      },
      "mesh": 0
    },
    {
      "matrix": [
        1,
        0,
        0,
        0,
        0,
        1,
        0,
        0,
        0,
        0,
        1,
        0,
        0,
        1.7701661534584727,
        1.113050717024787,
        1
      ],
      "name": "PointLight",
      "extensions": {
        "KHR_lights_punctual": {
          "light": 0
        }
      }
    }
  ],
  "bufferViews": [
    {
      "buffer": 0,
      "byteOffset": 0,
      "byteLength": 98268,
      "target": 34962,
      "byteStride": 12
    },
    {
      "buffer": 0,
      "byteOffset": 98268,
      "byteLength": 98268,
      "target": 34962,
      "byteStride": 12
    },
    {
      "buffer": 0,
      "byteOffset": 196536,
      "byteLength": 65512,
      "target": 34962,
      "byteStride": 8
    },
    {
      "buffer": 0,
      "byteOffset": 262048,
      "byteLength": 44160,
      "target": 34963
    }
  ],
  "buffers": [
    {
      "byteLength": 306208,
      "uri": "data:application/octet-stream;base64,"
    }
  ],
  "accessors": [
    {
      "bufferView": 0,
      "componentType": 5126,
      "count": 8189,
      "max": [
        1.1019761562347412,
        0.009999999776482582,
        -0.001410841941833496
      ],
      "min": [
        0.001411139965057373,
        -0.009999999776482582,
        -0.9483622908592224
      ],
      "type": "VEC3"
    },
    {
      "bufferView": 1,
      "componentType": 5126,
      "count": 8189,
      "max": [
        0.9998948574066162,
        1,
        0.999891996383667
      ],
      "min": [
        -0.9998948574066162,
        -1,
        -0.999891996383667
      ],
      "type": "VEC3"
    },
    {
      "bufferView": 2,
      "componentType": 5126,
      "count": 8189,
      "max": [
        1,
        1
      ],
      "min": [
        0,
        0
      ],
      "type": "VEC2"
    },
    {
      "bufferView": 3,
      "componentType": 5123,
      "count": 22080,
      "max": [
        8188
      ],
      "min": [
        0
      ],
      "type": "SCALAR"
    }
  ],
  "materials": [
    {
      "pbrMetallicRoughness": {
        "baseColorFactor": [
          0.8449230194091797,
          0.6182490587234497,
          1,
          1
        ],
        "metallicFactor": 0,
        "roughnessFactor": 0.5
      },
      "doubleSided": true,
      "name": "Material.001"
    }
  ],
  "meshes": [
    {
      "primitives": [
        {
          "mode": 4,
          "attributes": {
            "POSITION": 0,
            "NORMAL": 1,
            "TEXCOORD_0": 2
          },
          "indices": 3,
          "material": 0
        }
      ]
    }
  ],
  "extensions": {
    "KHR_lights_punctual": {
      "lights": [
        {
          "name": "PointLight",
          "color": [
            0.450785782828426,
            0.8227857543924378,
            0.5647115056965487
          ],
          "intensity": 1.82,
          "type": "point",
          "range": 8.1
        }
      ]
    }
  },
  "extensionsUsed": [
    "KHR_lights_punctual"
  ]
}